<svg
    viewBox="0 0 142 157"
    fill="none"
    xmlns="http://www.w3.org/2000/svg"
  >
    <path
      d="M28.3082 121.87L61.066 54.3801C62.0695 52.3126 64.1657 51 66.4638 51H109.666C110.546 51 110.997 52.0531 110.39 52.6897L38.0503 128.629C33.3258 133.588 25.3172 128.033 28.3082 121.87Z"
      stroke="#ffffff"
      stroke-width="13"
    />
    <path
      d="M33.6433 7H128.971C134.094 7 136.861 13.0073 133.53 16.9004L123.298 28.8603C122.159 30.1927 120.493 30.9598 118.739 30.9598H50.9843C48.6712 30.9598 46.5641 32.2895 45.5685 34.3773L34.0951 58.438C33.0995 60.5258 30.9924 61.8554 28.6793 61.8554H12.6254C8.18519 61.8554 5.28321 57.2 7.23837 53.2134L28.2563 10.358C29.2644 8.30265 31.3541 7 33.6433 7Z"
      stroke="#ffffff"
      stroke-width="13"
    />
</svg>